<?xml version="1.0" standalone="no"?>
<!DOCTYPE svg PUBLIC "-//W3C//DTD SVG 20010904//EN"
 "http://www.w3.org/TR/2001/REC-SVG-20010904/DTD/svg10.dtd">
<svg version="1.0" xmlns="http://www.w3.org/2000/svg"
 width="495.000000pt" height="504.000000pt" viewBox="0 0 495.000000 504.000000"
 preserveAspectRatio="xMidYMid meet">

<g transform="translate(0.000000,504.000000) scale(0.100000,-0.100000)"
fill="#000000" stroke="none">
<path d="M1105 4761 c-16 -5 -46 -15 -65 -24 -28 -12 -48 -13 -103 -5 -68 10
-68 10 -105 -21 -20 -17 -60 -47 -87 -65 -28 -19 -57 -42 -65 -51 -8 -10 -31
-28 -52 -41 -40 -25 -82 -90 -91 -140 -3 -18 -18 -49 -32 -69 -16 -25 -25 -51
-25 -78 0 -25 -13 -68 -36 -115 -47 -100 -51 -124 -27 -165 12 -20 23 -63 27
-108 4 -41 16 -94 27 -119 12 -26 28 -105 39 -185 17 -129 51 -299 83 -420 9
-32 16 -45 21 -36 13 21 35 -21 52 -100 8 -39 12 -74 10 -77 -3 -3 -27 18 -54
47 -47 50 -82 66 -82 36 0 -8 13 -21 30 -30 47 -24 114 -138 161 -272 16 -47
16 -54 2 -61 -12 -8 -10 -11 14 -20 17 -5 74 -56 129 -112 118 -122 235 -212
351 -271 l86 -42 -6 -87 c-8 -126 -21 -150 -104 -194 -68 -36 -191 -145 -245
-218 -15 -20 -83 -76 -150 -124 -141 -99 -212 -164 -238 -214 -34 -67 -72
-218 -101 -400 -5 -36 -14 -186 -19 -335 -5 -148 -13 -286 -18 -305 -5 -21 -5
-59 0 -90 4 -30 9 -82 10 -115 1 -58 1 -59 5 -11 4 43 6 48 26 43 12 -2 74
-16 137 -30 112 -25 216 -40 371 -52 l76 -6 -1 -37 -1 -37 430 1 c237 1 669 5
960 10 l530 9 -3 120 c-1 66 -9 185 -17 265 -8 80 -22 222 -30 317 -9 94 -22
209 -30 255 -21 115 -19 140 8 166 13 12 29 22 36 22 7 0 36 -25 65 -55 36
-38 59 -55 76 -55 31 0 116 48 149 84 39 42 61 35 188 -57 39 -29 113 -81 163
-117 51 -36 120 -85 153 -110 107 -78 241 -159 317 -191 135 -57 223 -48 303
29 37 36 78 107 76 134 0 7 -10 -8 -22 -34 -12 -25 -38 -59 -58 -75 -110 -87
-217 -65 -449 91 -41 28 -77 53 -80 57 -3 3 -20 14 -37 23 -18 9 -33 21 -33
26 0 6 -6 10 -14 10 -8 0 -16 3 -18 8 -1 4 -50 42 -108 85 -58 43 -112 84
-120 91 -44 35 -213 156 -262 189 -32 20 -58 44 -58 52 0 14 19 54 30 65 3 3
23 30 43 60 21 30 53 74 71 96 49 61 187 184 206 184 10 0 38 -18 63 -40 l45
-40 -19 63 c-21 67 -45 94 -113 123 -41 18 -209 147 -341 264 -140 122 -340
241 -459 271 -60 15 -92 6 -251 -70 -116 -56 -232 -98 -242 -87 -3 3 51 63
119 134 69 71 142 154 163 186 69 105 115 245 115 355 0 27 6 51 17 63 9 11
11 18 5 18 -8 0 -12 26 -13 78 0 42 -4 111 -8 152 -8 71 -7 77 17 110 14 19
29 37 33 40 5 3 5 11 0 18 -11 18 -43 -9 -57 -49 l-11 -34 -13 60 c-7 33 -15
67 -17 75 -3 8 -7 42 -9 75 -3 64 -33 259 -65 416 -35 176 -79 274 -149 330
-32 26 -41 41 -50 85 -12 57 -52 120 -97 152 -41 29 -297 146 -373 170 -174
54 -339 83 -470 81 -63 -1 -135 1 -160 4 -25 3 -58 2 -75 -2z m1019 -466 c70
-36 153 -113 188 -175 47 -86 128 -310 130 -360 1 -52 51 -337 65 -370 3 -8 7
-24 9 -35 1 -11 12 -62 23 -112 35 -155 24 -339 -27 -468 -32 -81 -168 -295
-207 -326 -11 -10 -45 -51 -75 -93 -65 -91 -110 -117 -240 -141 -47 -8 -107
-20 -135 -26 -27 -6 -97 -13 -155 -16 l-105 -4 -100 55 c-54 31 -102 56 -106
56 -30 0 -228 139 -295 208 -44 44 -125 165 -143 213 -8 19 -30 70 -51 114
-31 66 -46 107 -54 145 -16 73 -47 160 -58 160 -5 0 -8 18 -8 41 0 33 -4 42
-21 46 -13 4 -20 13 -18 27 2 36 -1 47 -11 41 -5 -3 -7 0 -4 8 3 8 0 18 -6 22
-16 10 -3 459 17 553 23 113 64 175 158 237 111 74 164 90 385 120 263 35 409
62 595 109 11 3 58 4 105 2 71 -2 94 -7 144 -31z m-569 -2366 c116 -30 126
-30 285 -26 135 3 177 8 229 25 35 12 68 22 73 22 26 0 -17 -192 -62 -281 -25
-48 -95 -107 -137 -115 -18 -3 -36 -10 -39 -15 -10 -17 -181 -10 -271 11 -48
12 -92 25 -97 30 -6 6 -16 10 -24 10 -7 0 -46 16 -85 35 -39 19 -77 35 -84 35
-7 0 -13 5 -13 12 0 6 -3 8 -6 5 -4 -4 -19 2 -34 13 -15 11 -38 24 -51 30 -47
20 -123 66 -126 77 -2 6 32 40 77 77 44 37 80 71 80 76 0 29 130 20 285 -21z"/>
<path d="M1927 3889 c-32 -12 -61 -28 -64 -36 -17 -43 86 -61 167 -29 57 23
157 16 229 -15 29 -12 54 -19 58 -15 10 10 -36 54 -86 83 -40 23 -59 27 -146
29 -82 3 -111 0 -158 -17z"/>
<path d="M1250 3784 c-61 -10 -148 -38 -180 -57 -68 -42 -150 -130 -150 -162
0 -14 26 -2 58 26 20 18 68 47 108 66 60 28 88 35 171 42 110 8 156 28 151 65
-3 19 -10 21 -68 22 -36 1 -76 0 -90 -2z"/>
<path d="M2065 3553 c-38 -6 -62 -27 -87 -77 -23 -44 -20 -108 5 -133 31 -31
217 -24 217 8 0 5 7 6 16 2 20 -8 34 13 34 54 0 101 -78 162 -185 146z m3 -90
c4 -29 -28 -47 -53 -29 -12 9 -15 19 -10 35 9 30 59 26 63 -6z"/>
<path d="M1205 3395 c-64 -32 -87 -58 -92 -107 -3 -25 0 -63 7 -83 l12 -38 95
6 c72 4 100 10 115 24 11 10 22 17 24 16 40 -26 49 79 12 133 -40 58 -113 79
-173 49z m3 -57 c30 -30 -4 -77 -41 -57 -29 17 -15 69 18 69 6 0 16 -5 23 -12z"/>
<path d="M1924 3059 c-7 -24 -21 -40 -49 -56 -76 -42 -152 -42 -199 2 l-26 24
0 -25 c0 -16 12 -37 31 -55 26 -25 39 -29 85 -29 57 0 115 19 146 47 23 21 39
79 29 105 -7 18 -8 17 -17 -13z"/>
<path d="M2135 2880 c-16 -10 -82 -30 -145 -45 -63 -15 -142 -34 -175 -42 -82
-20 -242 -43 -345 -50 -47 -3 -89 -9 -94 -14 -11 -10 16 -55 53 -87 51 -44
191 -92 271 -92 157 0 342 90 419 205 24 34 58 133 49 140 -2 1 -16 -6 -33
-15z m-55 -96 c0 -7 -5 -16 -11 -19 -12 -8 -113 -27 -309 -59 -80 -13 -152
-27 -161 -30 -10 -4 -19 -3 -23 2 -8 13 53 39 110 48 27 4 108 22 179 40 133
34 215 41 215 18z"/>
<path d="M4366 4145 c-9 -26 -7 -32 5 -12 6 10 9 21 6 23 -2 3 -7 -2 -11 -11z"/>
<path d="M4343 4093 c-3 -10 -8 -22 -11 -27 -3 -5 0 -6 5 -3 11 7 25 47 17 47
-3 0 -7 -8 -11 -17z"/>
<path d="M4626 4083 c-6 -14 -5 -15 5 -6 7 7 10 15 7 18 -3 3 -9 -2 -12 -12z"/>
<path d="M4605 4049 c-4 -6 -5 -12 -2 -15 2 -3 7 2 10 11 7 17 1 20 -8 4z"/>
<path d="M4304 4013 c-9 -20 -27 -53 -40 -72 -13 -20 -24 -40 -24 -46 0 -16
49 61 70 110 11 25 17 45 14 45 -3 0 -12 -17 -20 -37z"/>
<path d="M4580 4009 c0 -5 5 -7 10 -4 6 3 10 8 10 11 0 2 -4 4 -10 4 -5 0 -10
-5 -10 -11z"/>
<path d="M4535 3928 c-16 -24 -43 -68 -61 -98 -17 -30 -55 -93 -83 -140 -51
-85 -67 -124 -33 -79 10 13 33 51 51 84 19 33 63 106 98 163 36 57 63 106 60
108 -2 2 -17 -15 -32 -38z"/>
<path d="M4199 3813 c-20 -56 -20 -58 -11 -48 11 12 33 75 26 75 -2 0 -9 -12
-15 -27z"/>
<path d="M3530 3813 c0 -3 19 -31 43 -62 78 -104 81 -113 83 -321 3 -208 20
-308 74 -428 42 -92 47 -146 60 -662 12 -471 23 -644 54 -845 8 -48 72 -252
101 -319 18 -43 22 -56 34 -129 5 -27 13 -53 20 -60 23 -23 11 41 -43 233 -44
156 -76 312 -95 465 -29 237 -30 242 -41 510 -30 722 -32 771 -47 810 -64 176
-97 335 -87 424 3 31 1 101 -5 156 l-11 100 -70 68 c-39 37 -70 64 -70 60z"/>
<path d="M4675 3713 c-14 -21 -51 -76 -82 -123 -30 -47 -68 -101 -84 -121 -32
-40 -38 -59 -13 -38 12 10 173 247 208 307 16 28 -5 9 -29 -25z"/>
<path d="M4754 3438 l-19 -23 23 19 c21 18 27 26 19 26 -2 0 -12 -10 -23 -22z"/>
<path d="M4664 3323 c-15 -20 -23 -33 -16 -29 13 8 56 66 49 66 -3 0 -17 -17
-33 -37z"/>
<path d="M4565 3179 c-71 -109 -71 -109 -143 -182 -49 -49 -96 -70 -183 -82
-26 -3 -55 -12 -65 -19 -16 -12 -17 -17 -5 -39 12 -22 16 -24 28 -12 8 8 33
19 56 25 135 34 183 81 336 328 28 45 49 82 47 82 -3 0 -34 -46 -71 -101z"/>
<path d="M4432 875 c0 -16 2 -22 5 -12 2 9 2 23 0 30 -3 6 -5 -1 -5 -18z"/>
</g>
</svg>
